HIERARCHY
ROOT Pelvis
{
	OFFSET 0.32 0 0
	CHANNELS 6 Xposition Yposition Zposition Zrotation Xrotation Yrotation
	JOINT SpineShoulder
	{
		OFFSET 0 6.740009 0
		CHANNELS 3 Zrotation Xrotation Yrotation
		JOINT Neck
		{
			OFFSET 0 2.640004 0
			CHANNELS 3 Zrotation Xrotation Yrotation
			End Site
			{
				OFFSET 0 4.719998 0
			}
		}
		JOINT ShoulderLeft
		{
			OFFSET 3.340001 0.6799955 0
			CHANNELS 3 Zrotation Xrotation Yrotation
			JOINT ElbowLeft
			{
				OFFSET 5.307964 0 0
				CHANNELS 3 Zrotation Xrotation Yrotation
				End Site
				{
					OFFSET 4.786495 0 0
				}
			}
		}
		JOINT ShoulderRight
		{
			OFFSET -3.300001 0.6799955 0
			CHANNELS 3 Zrotation Xrotation Yrotation
			JOINT ElbowRight
			{
				OFFSET -5.307964 0 0
				CHANNELS 3 Zrotation Xrotation Yrotation
				End Site
				{
					OFFSET -4.786495 0 0
				}
			}
		}
	}
	JOINT HipLeft
	{
		OFFSET 2.560001 -1.599997 0
		CHANNELS 3 Zrotation Xrotation Yrotation
		JOINT KneeLeft
		{
			OFFSET 0 -8.508625 0
			CHANNELS 3 Zrotation Xrotation Yrotation
			End Site
			{
				OFFSET 0 -7.880188 0
			}
		}
	}
	JOINT HipRight
	{
		OFFSET -2.560001 -1.599997 0
		CHANNELS 3 Zrotation Xrotation Yrotation
		JOINT KneeRight
		{
			OFFSET 0 -8.508625 0
			CHANNELS 3 Zrotation Xrotation Yrotation
			End Site
			{
				OFFSET 0 -7.880188 0
			}
		}
	}
}
MOTION
Frames: 29
Frame Time: 0.03333334
0 0 0 0 0 0 0 0 0 0 0 0 0 0 0 0 0 0 0 0 0 0 0 0 0 0 0 0 0 0 0 0 0 0 0 0
0 0 0 -2.432308 10.98443 8.470298 -358.5631 16.81416 356.3126 -356.2007 354.4172 1.062047 -71.34606 345.1048 351.7329 -2.340083 24.81039 318.2155 -291.5912 328.7293 6.545712 -340.0324 40.22444 29.393 -3.210227 0.256973 359.6935 -356.8615 23.36695 0.5137789 -358.2873 1.501639 0.1565338 -358.5329 23.54987 359.6563
0 0 0 -2.555728 10.99441 8.498636 -359.0547 16.56754 356.6759 -357.7262 354.6256 0.5853756 -70.77327 345.2422 352.5832 -1.161237 24.8905 316.373 -291.035 328.4522 6.457619 -340.3778 40.63467 29.36523 -2.800246 0.3204512 359.7345 -357.4305 23.59838 0.5177957 -358.2577 1.305532 0.1623852 -358.3317 23.92144 359.6436
0 0 0 -1.649484 10.73695 6.099031 -358.5233 16.45835 356.6576 -357.1045 355.1737 0.791281 -71.63045 342.37 352.0384 -3.04173 26.58498 320.4479 -291.7567 332.926 7.31722 -342.557 37.4015 32.05886 -3.722494 1.486916 359.7009 -357.9089 23.81522 0.7023351 -359.471 359.8397 0.05025068 -358.4332 31.09906 359.6964
0 0 0 -2.181869 11.43969 4.321407 -357.758 18.39262 355.9784 -358.0711 352.8209 0.551559 -73.35197 337.8103 348.3733 -2.89381 36.42115 315.0832 -291.7852 335.9619 9.654873 -342.9241 36.82189 37.49663 -3.498821 358.8362 359.5967 -0.8462427 25.95255 1.265493 -358.8308 358.788 0.1165634 -358.7492 29.70143 359.8182
0 0 0 -1.68081 10.8803 4.864922 -357.9789 18.08939 355.81 -357.2776 353.5656 0.7989385 -73.52509 337.5785 351.347 -4.487125 28.47787 324.8025 -291.6849 334.1249 6.591903 -341.4246 31.7064 28.68182 -5.36591 2.488593 359.6161 -356.7701 26.81479 1.119966 -0.383297 1.252927 359.9757 -358.5313 27.61822 0.08176755
0 0 0 -1.664447 10.95375 3.700215 -358.2926 18.13623 356.259 -357.3622 353.3452 0.7592455 -73.78741 336.0759 351.4549 -4.512761 29.51057 325.5373 -291.4887 335.6366 7.055212 -341.677 30.33177 29.10516 -5.427479 3.864702 359.69 -0.4562694 25.10365 1.529623 -0.8208448 3.531002 359.9757 -355.5818 28.83813 359.8875
0 0 0 -2.071892 10.58038 4.061546 -357.3551 19.64483 356.0586 -358.0962 352.3371 0.5820216 -72.70319 335.8841 350.1706 -7.430998 33.36148 322.2982 -292.7485 335.1637 9.011175 -339.0292 31.70523 29.30487 -2.905448 2.483338 359.8194 -1.791187 25.31457 1.18714 -359.7611 0.6857251 0.02892778 -354.7341 31.51043 359.328
0 0 0 -2.00521 11.80525 7.848512 -356.676 19.35137 355.2453 -358.0467 352.715 0.6886579 -73.59187 341.8527 348.1701 -8.118958 28.80579 321.5889 -290.8484 331.3278 13.02743 -334.9041 38.99157 27.79557 -3.453841 355.6567 359.4941 -358.074 29.30304 0.6419498 -357.4757 358.3156 0.2954903 -0.06175975 23.41389 359.5527
0 0 0 -1.892259 11.50266 6.173275 -357.2018 18.67831 355.0939 -357.6927 353.9369 0.716169 -74.39847 338.9401 349.2567 -7.507685 31.87359 322.4799 -291.5986 332.9369 8.615286 -335.5272 36.2239 27.94707 -3.565408 357.2099 359.5347 -358.5513 29.58585 0.8672188 -357.3438 358.8856 0.2898071 -0.705496 24.99625 359.6366
0 0 0 -1.845977 12.0737 5.217126 -357.3179 17.48341 355.6548 -358.4577 354.4424 0.463653 -74.34386 340.0464 347.5713 -9.529347 31.35956 325.109 -292.1335 336.0941 11.50707 -335.4089 36.32782 30.26617 -4.026903 356.3864 359.4207 -357.7021 26.53085 0.7748608 -357.9873 358.4094 0.2319759 -359.7284 24.64619 359.6815
0 0 0 -2.310911 11.82152 10.16633 -357.6579 19.07395 355.7147 -359.4854 353.0824 0.1633946 -72.45847 345.7914 349.4549 -9.942694 23.56882 323.509 -289.2839 326.5309 11.98031 -332.3336 41.6072 22.90559 -3.3642 356.6966 359.5435 -357.318 25.78349 0.418232 -357.1157 358.6883 0.3344952 -359.2956 28.11875 359.1936
0 0 0 -1.854844 11.93805 5.705745 -357.3289 18.06943 356.3917 -358.3294 354.0667 0.5370347 -74.27767 340.0638 349.9488 -9.579474 29.56595 324.9363 -291.5016 333.4954 11.43327 -335.201 38.11441 29.04538 -4.366351 354.2038 359.2869 -353.2887 32.56062 359.872 -357.6509 359.4613 0.2558993 -359.7215 25.09289 359.5788
0 0 0 -2.385081 12.22544 4.659953 -357.3949 17.06343 356.7805 -359.5175 355.007 0.1263754 -75.34422 339.7257 349.5812 -10.18653 29.62 327.8248 -291.8021 335.5227 11.10788 -331.2057 37.10669 27.1365 -3.135605 354.1358 359.4302 -355.2637 30.26949 0.2168095 -356.8162 359.9671 0.3456084 -359.21 22.99512 359.5458
0 0 0 -1.090473 12.17097 5.860379 -359.2448 15.61763 356.64 -358.4498 356.0316 0.409301 -74.19879 343.7469 349.499 -9.540119 26.92908 327.1216 -291.4769 336.9257 14.20289 -333.3918 38.45527 29.34201 -4.179988 355.4426 359.3946 -357.8475 26.03329 0.5880138 -0.478986 0.2350542 359.9494 -356.482 23.91785 359.7026
0 0 0 -1.063379 11.99479 9.333121 -358.9188 15.30298 355.5357 -358.7813 356.8837 0.3246427 -73.77681 347.8364 350.5217 -9.967381 21.49835 327.9951 -290.2213 331.7174 11.69785 -332.2935 38.76525 22.57009 -1.64467 355.8221 359.8003 -2.670997 31.46968 0.7989357 -0.4072149 0.03164519 359.957 -355.6279 25.1732 359.3624
0 0 0 -0.6706867 11.78531 9.907351 -358.4565 13.75175 354.8039 -357.0781 356.381 0.7723635 -73.77032 350.0825 349.8031 -11.04601 19.21128 330.5987 -291.4028 333.1246 11.05902 -333.4531 36.6946 21.65577 -1.909917 354.2171 359.7776 -2.482554 32.23818 0.7567279 -358.175 0.07107989 0.1854892 -0.3397539 22.19746 359.3891
0 0 0 -1.411371 12.05267 8.50055 -358.3774 13.37764 355.3943 -357.7375 358.1137 0.5484257 -72.44574 348.5543 349.1462 -11.55901 26.40189 325.1816 -290.3977 336.6684 13.57749 -337.9684 41.00702 31.77085 -1.658493 353.8675 359.7565 -358.773 31.0432 0.0795821 -357.4157 359.2295 0.2943127 -0.9630275 22.37201 359.4943
0 0 0 -2.171422 12.35943 5.494906 -358.8238 13.91792 356.2656 -356.8876 358.2574 0.7499202 -73.51797 345.0409 347.2868 -18.34377 30.24986 331.3399 -294.2153 338.5716 12.16607 -327.0211 36.59571 26.65464 -1.437459 352.3882 359.6826 -358.6418 28.56575 0.3324837 -355.9032 357.7062 0.5098661 -1.918368 20.79267 359.6006
0 0 0 -2.047574 12.69495 5.789546 -359.2715 12.04747 357.5433 -357.1441 358.2043 0.6539172 -73.59946 346.9059 350.7877 -12.581 25.93001 329.3063 -291.6187 337.1254 11.10057 -331.3164 38.90987 26.99688 -1.800111 353.2432 359.6477 -357.8215 23.51785 0.1985247 -355.5799 357.7505 0.5675014 -0.7776391 18.03417 359.4599
0 0 0 -1.597839 12.94218 6.095382 -359.1969 13.52247 356.3591 -357.0274 357.8071 0.7330142 -69.84903 344.0762 349.5266 -18.96426 30.37954 328.5518 -295.0587 336.8136 11.9835 -328.4991 39.44279 29.17424 -1.395353 353.6851 359.7525 -359.2167 20.71635 0.2011474 -357.1188 356.5761 0.4071307 -359.3555 17.03354 359.5525
0 0 0 -0.952018 13.47585 9.78666 -357.714 9.717422 353.5603 -355.2784 356.6966 1.13917 -69.65552 351.0036 346.7324 -22.74932 21.12218 335.3157 -296.4829 337.5854 10.97639 -327.9338 35.44823 23.1146 -358.7745 353.0226 0.2993208 -2.121863 19.76176 359.8011 -356.1892 356.6967 0.5963175 -0.4313106 12.27659 359.4453
0 0 0 -1.955425 14.42787 12.52155 -358.2519 8.503074 354.1664 -359.4522 1.456308 0.09793948 -67.06019 354.7419 348.7825 -22.15787 16.82115 332.8588 -294.4569 332.6861 10.83806 -323.1465 39.30473 17.837 -355.5977 350.6649 1.008441 -7.263383 20.25371 359.9813 -354.7258 355.0177 0.9490068 -0.6849349 11.24351 359.366
0 0 0 -1.477834 15.09864 6.959048 -359.7617 11.78258 355.443 -357.0594 358.662 0.7173398 -69.09587 344.0477 348.798 -21.03823 26.15656 333.5825 -295.4394 336.8455 12.72323 -321.0166 29.98866 16.71997 -0.4719723 351.7849 359.9289 -2.57542 17.35673 0.2580338 -0.2683902 354.2322 359.9684 -355.0952 14.26357 359.7774
0 0 0 -0.4892149 18.08166 4.914309 -359.3618 9.587399 355.5164 -358.7856 359.2794 0.3035454 -65.12192 339.645 348.5478 -32.43285 26.46127 340.6918 -300.268 338.5249 13.02267 -311.0277 29.02324 15.93679 -357.7088 349.4203 0.6649749 -6.413474 14.18432 359.9673 -0.6174141 352.0398 359.9336 -352.2372 9.729915 359.9875
0 0 0 -359.0656 22.70222 3.840154 -1.560716 2.232595 356.1838 -359.2879 359.5808 0.1567843 -65.57203 342.7059 348.9874 -33.94586 22.8464 344.0801 -299.8541 340.3699 11.22581 -310.9467 23.70682 11.44713 -359.4355 346.4201 0.467782 -5.040042 7.846243 359.7403 -6.235945 347.7373 358.3891 -347.6561 7.701324 0.5250143
0 0 0 -0.2665268 26.49685 0.7655571 -359.2204 1.936066 357.3747 -2.505676 358.8027 359.3351 -63.34455 335.112 347.5483 -47.15789 27.02755 350.1439 -302.3945 341.7118 13.69722 -309.2644 21.76468 14.27658 -355.0747 340.5714 1.939329 -8.032612 10.21989 359.8036 -3.554426 341.3613 358.6448 -346.4123 10.38803 359.9927
0 0 0 -359.6859 27.59538 5.663391 -1.046682 0.9968525 353.8503 -0.6877367 355.0791 359.7561 -56.60776 337.4968 347.3507 -57.35403 24.29451 350.3115 -304.7202 336.7736 10.6521 -296.7002 20.85646 5.581813 -357.7384 339.637 1.453604 -9.609855 15.55711 0.02264848 -4.993359 342.0761 358.5406 -347.1308 11.91189 359.9028
0 0 0 -0.2400114 31.27517 5.543256 -1.211289 0.5134912 354.1785 -359.5685 358.2747 0.1046698 -58.38985 336.0275 344.5852 -49.43647 25.7 346.5302 -306.6308 334.7767 14.54537 -293.9827 22.86455 8.269422 -353.414 329.8972 4.073752 -11.41903 18.34675 0.4181012 -8.805647 334.9731 356.4406 -345.2105 15.76929 359.4408
